ffmpeg version 3.4.8-0ubuntu0.2 Copyright (c) 2000-2020 the FFmpeg developers
  built with gcc 7 (Ubuntu 7.5.0-3ubuntu1~18.04)
  configuration: --prefix=/usr --extra-version=0ubuntu0.2 --toolchain=hardened --libdir=/usr/lib/x86_64-linux-gnu --incdir=/usr/include/x86_64-linux-gnu --enable-gpl --disable-stripping --enable-avresample --enable-avisynth --enable-gnutls --enable-ladspa --enable-libass --enable-libbluray --enable-libbs2b --enable-libcaca --enable-libcdio --enable-libflite --enable-libfontconfig --enable-libfreetype --enable-libfribidi --enable-libgme --enable-libgsm --enable-libmp3lame --enable-libmysofa --enable-libopenjpeg --enable-libopenmpt --enable-libopus --enable-libpulse --enable-librubberband --enable-librsvg --enable-libshine --enable-libsnappy --enable-libsoxr --enable-libspeex --enable-libssh --enable-libtheora --enable-libtwolame --enable-libvorbis --enable-libvpx --enable-libwavpack --enable-libwebp --enable-libx265 --enable-libxml2 --enable-libxvid --enable-libzmq --enable-libzvbi --enable-omx --enable-openal --enable-opengl --enable-sdl2 --enable-libdc1394 --enable-libdrm --enable-libiec61883 --enable-chromaprint --enable-frei0r --enable-libopencv --enable-libx264 --enable-shared
  libavutil      55. 78.100 / 55. 78.100
  libavcodec     57.107.100 / 57.107.100
  libavformat    57. 83.100 / 57. 83.100
  libavdevice    57. 10.100 / 57. 10.100
  libavfilter     6.107.100 /  6.107.100
  libavresample   3.  7.  0 /  3.  7.  0
  libswscale      4.  8.100 /  4.  8.100
  libswresample   2.  9.100 /  2.  9.100
  libpostproc    54.  7.100 / 54.  7.100
[rawvideo @ 0x559f49a6da20] Estimating duration from bitrate, this may be inaccurate
Input #0, rawvideo, from '../../SVC-Encoder-20220109T061506Z-001/SVC-Encoder/Dataset/RollerCoaster/6f_2x2/tile_yuv/f1_t1_480x480.yuv':
  Duration: 00:00:10.00, start: 0.000000, bitrate: 82944 kb/s
    Stream #0:0: Video: rawvideo (I420 / 0x30323449), yuv420p, 480x480, 82944 kb/s, 30 tbr, 30 tbn, 30 tbc
Stream mapping:
  Stream #0:0 -> #0:0 (rawvideo (native) -> h264 (libx264))
Press [q] to stop, [?] for help
[libx264 @ 0x559f49a7ac60] using cpu capabilities: MMX2 SSE2Fast LZCNT SSSE3 SSE4.2 AVX
[libx264 @ 0x559f49a7ac60] profile High, level 3.0
Output #0, rawvideo, to 'RollerCoaster_f1_t1_480x480_x264_QP_24.h264':
  Metadata:
    encoder         : Lavf57.83.100
    Stream #0:0: Video: h264 (libx264), yuv420p, 480x480, q=-1--1, 30 fps, 30 tbn, 30 tbc
    Metadata:
      encoder         : Lavc57.107.100 libx264
    Side data:
      cpb: bitrate max/min/avg: 0/0/0 buffer size: 0 vbv_delay: -1
frame=  106 fps=0.0 q=30.0 PSNR=Y:nan U:nan V:nan *:nan size=     175kB time=00:00:02.10 bitrate= 683.5kbits/s speed=4.17x    frame=  175 fps=174 q=30.0 PSNR=Y:nan U:nan V:nan *:nan size=     256kB time=00:00:04.40 bitrate= 476.6kbits/s speed=4.37x    frame=  246 fps=163 q=30.0 PSNR=Y:nan U:nan V:nan *:nan size=     256kB time=00:00:06.76 bitrate= 309.9kbits/s speed=4.49x    frame=  300 fps=143 q=30.0 LPSNR=Y:inf U:inf V:inf *:inf size=     717kB time=00:00:09.93 bitrate= 591.5kbits/s speed=4.74x    
video:717kB audio:0kB subtitle:0kB other streams:0kB global headers:0kB muxing overhead: 0.000000%
[libx264 @ 0x559f49a7ac60] frame I:2     Avg QP:22.20  size: 34133  PSNR Mean Y:43.63 U:48.08 V:50.63 Avg:44.82 Global:44.70
[libx264 @ 0x559f49a7ac60] frame P:76    Avg QP:23.84  size:  7083  PSNR Mean Y:41.61 U:47.90 V:49.98 Avg:42.97 Global:42.89
[libx264 @ 0x559f49a7ac60] frame B:222   Avg QP:29.48  size:   576  PSNR Mean Y:40.49 U:47.65 V:49.87 Avg:41.93 Global:41.91
[libx264 @ 0x559f49a7ac60] consecutive B-frames:  1.3%  0.0%  0.0% 98.7%
[libx264 @ 0x559f49a7ac60] mb I  I16..4: 14.3% 75.8%  9.9%
[libx264 @ 0x559f49a7ac60] mb P  I16..4:  0.3%  0.1%  0.0%  P16..4: 30.7% 22.0% 17.6%  0.0%  0.0%    skip:29.3%
[libx264 @ 0x559f49a7ac60] mb B  I16..4:  0.0%  0.0%  0.0%  B16..8: 33.0%  5.5%  0.4%  direct: 0.4%  skip:60.6%  L0:34.2% L1:51.6% BI:14.2%
[libx264 @ 0x559f49a7ac60] 8x8 transform intra:70.1% inter:60.1%
[libx264 @ 0x559f49a7ac60] coded y,uvDC,uvAC intra: 67.7% 70.7% 36.2% inter: 11.1% 5.8% 0.0%
[libx264 @ 0x559f49a7ac60] i16 v,h,dc,p: 11% 42% 10% 37%
[libx264 @ 0x559f49a7ac60] i8 v,h,dc,ddl,ddr,vr,hd,vl,hu:  8% 23% 18%  5%  6%  4% 11% 10% 14%
[libx264 @ 0x559f49a7ac60] i4 v,h,dc,ddl,ddr,vr,hd,vl,hu: 10% 23% 15%  7%  6%  5% 10% 12% 13%
[libx264 @ 0x559f49a7ac60] i8c dc,h,v,p: 45% 28% 12% 15%
[libx264 @ 0x559f49a7ac60] Weighted P-Frames: Y:0.0% UV:0.0%
[libx264 @ 0x559f49a7ac60] ref P L0: 62.6% 18.6% 15.4%  3.4%
[libx264 @ 0x559f49a7ac60] ref B L0: 86.6% 11.9%  1.5%
[libx264 @ 0x559f49a7ac60] ref B L1: 87.1% 12.9%
[libx264 @ 0x559f49a7ac60] PSNR Mean Y:40.797 U:47.712 V:49.904 Avg:42.214 Global:42.154 kb/s:587.51
